# xmcd
#
# Track frame offsets:
#	150
#	19788
#	34781
#	56143
#	74185
#
# Disc length: 1199 seconds
#
# Revision: 0
# Processed by: cddbd v1.5.1PL2 Copyright (c) Steve Scherf et al.
# Submitted via: audiograbber 1.83.01
#
DISCID=4704ad05
DTITLE=Broken Back Daddy - Demo
DYEAR=2006
DGENRE=Blues
TTITLE0=Dimples
TTITLE1=Messin' with the Kids
TTITLE2=Rock Me
TTITLE3=Close to You
TTITLE4=Rollin' and Tumblin'
EXTD=bb-daddy@wanadoo.fr
EXTT0=
EXTT1=
EXTT2=
EXTT3=
EXTT4=
PLAYORDER=
